<?xml version="1.0" encoding="UTF-8"?>
<svg id="Layer_2" data-name="Layer 2" xmlns="http://www.w3.org/2000/svg" xmlns:xlink="http://www.w3.org/1999/xlink" viewBox="0 0 545.42 153.3">
  <defs>
    <style>
      .cls-1 {
        fill: url(#linear-gradient);
      }

      .cls-1, .cls-2, .cls-3, .cls-4, .cls-5, .cls-6, .cls-7 {
        stroke-width: 0px;
      }

      .cls-2 {
        fill: url(#linear-gradient-6);
      }

      .cls-3 {
        fill: url(#linear-gradient-5);
      }

      .cls-4 {
        fill: url(#linear-gradient-2);
      }

      .cls-5 {
        fill: url(#linear-gradient-7);
      }

      .cls-6 {
        fill: url(#linear-gradient-3);
      }

      .cls-7 {
        fill: url(#linear-gradient-4);
      }
    </style>
    <linearGradient id="linear-gradient" x1="-66.08" y1="-128.72" x2="562.66" y2="275.77" gradientUnits="userSpaceOnUse">
      <stop offset="0" stop-color="#00aeef"/>
      <stop offset="1" stop-color="#2e3192"/>
    </linearGradient>
    <linearGradient id="linear-gradient-2" x1="-122.77" y1="-40.59" x2="505.97" y2="363.89" xlink:href="#linear-gradient"/>
    <linearGradient id="linear-gradient-3" x1="-103.93" y1="-69.87" x2="524.8" y2="334.61" xlink:href="#linear-gradient"/>
    <linearGradient id="linear-gradient-4" x1="-6.72" y1="-220.99" x2="622.02" y2="183.5" xlink:href="#linear-gradient"/>
    <linearGradient id="linear-gradient-5" x1="-35.33" y1="-176.52" x2="593.41" y2="227.96" xlink:href="#linear-gradient"/>
    <linearGradient id="linear-gradient-6" x1="-30.09" y1="-184.67" x2="598.65" y2="219.82" xlink:href="#linear-gradient"/>
    <linearGradient id="linear-gradient-7" x1="5.3" y1="-239.67" x2="634.04" y2="164.82" xlink:href="#linear-gradient"/>
  </defs>
  <g id="Layer_1-2" data-name="Layer 1">
    <g>
      <path class="cls-1" d="M316.17,64.26c-13.86-21.1-44.42-24.16-58.61-7.05-.33.39-1.02.49-1.93.89V3.34c-12.28,4.09-23.79,7.82-35.19,11.89-1.05.37-1.89,2.88-1.9,4.39-.1,34.17-.11,68.33.02,102.49.01,1.91.93,4.23,2.21,5.65,15.33,16.98,34.28,23.34,57.05,20.43,44.47-5.69,57.04-55.47,38.35-83.93ZM286.88,103.17c-.97,9.16-2.65,18.44-5.6,27.13-3.97,11.73-13.01,15.57-26.43,11.98.88-22.35,1.46-44.59,2.85-66.77.32-5.23,2.93-10.49,5.26-15.37,2.2-4.6,6.29-7.23,11.74-6.85,5.8.41,8.22,4.47,9.66,9.34,3.95,13.31,3.95,26.98,2.52,40.54Z"/>
      <path class="cls-4" d="M55.78.15h37.52c.11,1.55.3,2.98.3,4.42,0,29.5.03,59.01-.08,88.51-.05,13.58-3.06,26.35-10.84,37.8-12.34,18.13-37.69,26.96-58.3,20.13-18.3-6.07-28.65-25.62-22.69-43.54,2.82-8.47,8.62-14.2,17.84-15.51,9.15-1.3,16.53,1.92,21.22,9.92,4.3,7.32,4.22,14.96-.43,22.2-4.81,7.48-15.03,10.49-24.47,7.43-2.01-.65-3.94-1.57-6.78-2.72,2.85,9.12,8.7,14.35,16.73,16.97,16.79,5.49,29.3-2.85,29.7-20.64.61-27.15.25-54.31.29-81.47.02-14.3,0-28.6,0-43.5Z"/>
      <path class="cls-6" d="M156.09,45.92c-30.27-.07-51.21,21.25-51.35,52.27-.13,29.27,21.82,50.88,51.74,50.94,29.98.06,50.38-20.87,50.38-51.72.01-30.49-20.64-51.42-50.77-51.49ZM155.8,147.76c-10.59,0-19.17-22.17-19.17-49.52s8.58-49.53,19.17-49.53,19.18,22.17,19.18,49.53-8.59,49.52-19.18,49.52Z"/>
      <path class="cls-7" d="M477.74,111.17c-7.5,9.61-14.85,18.25-21.28,27.53-4.36,6.28-9.35,9.01-17.48,6.59,1.2-1.62,2.36-3.27,3.6-4.85,8.92-11.41,17.77-22.88,26.86-34.16,2.17-2.7,2.18-4.6.27-7.39-11.09-16.19-22.01-32.49-33.44-49.43,1.87-.16,3.23-.38,4.58-.39,11.49-.04,22.99.1,34.48-.13,3.4-.07,5.49,1,7.31,3.82,5.94,9.21,12.09,18.28,18.61,28.08,6.68-8.63,13.48-16.4,19.06-24.96,4.37-6.71,9.7-8.08,17.32-6.24-4.94,6.49-9.68,12.82-14.51,19.07-4.28,5.53-8.43,11.19-13.06,16.41-2.73,3.07-2.75,5.27-.4,8.58,10.67,15.08,21.09,30.34,31.58,45.54,1.32,1.91,2.57,3.87,4.19,6.32-1.62.19-2.82.45-4.02.45-11.99,0-23.99-.14-35.98.03-3.05.04-4.78-1.01-6.42-3.49-6.86-10.37-13.93-20.6-21.26-31.37Z"/>
      <path class="cls-3" d="M336.64,15.3c12.03-3.96,23.96-7.88,36.39-11.97v142.3h-36.39V15.3Z"/>
      <path class="cls-2" d="M425.75,47.93v97.81h-36.55c-.11-1.63-.28-3.09-.28-4.55.02-25.99.11-51.98.02-77.97-.01-3.34.81-4.99,4.26-5.91,10.72-2.86,21.34-6.12,32.56-9.38Z"/>
      <path class="cls-5" d="M408.67,39.04c-11.47.07-20.15-8.04-20.17-18.87-.03-11.26,8.49-19.95,19.76-20.17,11.15-.22,20.14,8.94,20.01,20.39-.12,10.09-9.04,18.58-19.59,18.65Z"/>
    </g>
  </g>
</svg>