<?xml version="1.0" encoding="utf-8"?>
<!-- Generator: Adobe Illustrator 23.0.5, SVG Export Plug-In . SVG Version: 6.00 Build 0)  -->
<svg version="1.1" id="Layer_1" xmlns="http://www.w3.org/2000/svg" xmlns:xlink="http://www.w3.org/1999/xlink" x="0px" y="0px"
	 viewBox="0 0 545.4 153.3" style="enable-background:new 0 0 545.4 153.3;" xml:space="preserve">
<style type="text/css">
	.st0{fill:url(#SVGID_1_);}
	.st1{fill:url(#SVGID_2_);}
	.st2{fill:url(#SVGID_3_);}
	.st3{fill:url(#SVGID_4_);}
	.st4{fill:url(#SVGID_5_);}
	.st5{fill:url(#SVGID_6_);}
	.st6{fill:url(#SVGID_7_);}
</style>
<title>Asset 1</title>
<g>
	<g id="Layer_1-2">
		<g id="Layer_1-2-2">
			
				<linearGradient id="SVGID_1_" gradientUnits="userSpaceOnUse" x1="-77.8575" y1="932.2451" x2="1438.1425" y2="985.2451" gradientTransform="matrix(1 0 0 1 0 -868)">
				<stop  offset="0" style="stop-color:#16F3CE"/>
				<stop  offset="1" style="stop-color:#15B187"/>
			</linearGradient>
			<path class="st0" d="M316.2,64.3c-13.9-21.1-44.4-24.2-58.6-7c-0.3,0.4-1,0.5-1.9,0.9V3.3c-12.3,4.1-23.8,7.8-35.2,11.9
				c-1.1,0.4-1.9,2.9-1.9,4.4c-0.1,34.2-0.1,68.3,0,102.5c0.1,2.1,0.9,4.1,2.2,5.7c15.3,17,34.3,23.3,57,20.4
				C322.3,142.5,334.9,92.7,316.2,64.3z M286.9,103.2c-0.9,9.2-2.7,18.3-5.6,27.1c-4,11.7-13,15.6-26.4,12
				c0.9-22.3,1.5-44.6,2.9-66.8c0.3-5.3,2.9-10.5,5.3-15.4c2-4.6,6.8-7.4,11.7-6.8c5.8,0.4,8.2,4.5,9.7,9.3
				C288.3,75.9,288.3,89.6,286.9,103.2z"/>
			
				<linearGradient id="SVGID_2_" gradientUnits="userSpaceOnUse" x1="-78.1187" y1="939.7173" x2="1437.8812" y2="992.7173" gradientTransform="matrix(1 0 0 1 0 -868)">
				<stop  offset="0" style="stop-color:#16F3CE"/>
				<stop  offset="1" style="stop-color:#15B187"/>
			</linearGradient>
			<path class="st1" d="M55.8,0.2h37.5c0.1,1.5,0.3,3,0.3,4.4c0,29.5,0,59-0.1,88.5c0,13.6-3.1,26.3-10.8,37.8
				C70.3,149,45,157.8,24.4,151c-18.3-6.1-28.6-25.6-22.7-43.5C4.5,99,10.3,93.3,19.5,92s16.5,1.9,21.2,9.9c4.3,7.3,4.2,15-0.4,22.2
				c-4.8,7.5-15,10.5-24.5,7.4c-2-0.6-3.9-1.6-6.8-2.7c2.9,9.1,8.7,14.4,16.7,17c16.8,5.5,29.3-2.9,29.7-20.6
				C56,98,55.7,70.9,55.7,43.7C55.8,29.4,55.8,15.1,55.8,0.2L55.8,0.2z"/>
			
				<linearGradient id="SVGID_3_" gradientUnits="userSpaceOnUse" x1="-78.7329" y1="957.2858" x2="1437.2671" y2="1010.2858" gradientTransform="matrix(1 0 0 1 0 -868)">
				<stop  offset="0" style="stop-color:#16F3CE"/>
				<stop  offset="1" style="stop-color:#15B187"/>
			</linearGradient>
			<path class="st2" d="M156.1,45.9c-30.3-0.1-51.2,21.3-51.3,52.3c-0.1,29.3,21.8,50.9,51.7,50.9s50.4-20.9,50.4-51.7
				C206.9,66.9,186.2,46,156.1,45.9z M155.8,147.8c-10.6,0-19.2-22.2-19.2-49.5s8.6-49.5,19.2-49.5S175,70.9,175,98.2
				S166.4,147.8,155.8,147.8L155.8,147.8z"/>
			
				<linearGradient id="SVGID_4_" gradientUnits="userSpaceOnUse" x1="-78.3275" y1="945.688" x2="1437.6725" y2="998.688" gradientTransform="matrix(1 0 0 1 0 -868)">
				<stop  offset="0" style="stop-color:#16F3CE"/>
				<stop  offset="1" style="stop-color:#15B187"/>
			</linearGradient>
			<path class="st3" d="M477.7,111.2c-7.5,9.6-14.9,18.3-21.3,27.5c-4.4,6.3-9.4,9-17.5,6.6c1.2-1.6,2.4-3.3,3.6-4.9
				c8.9-11.4,17.8-22.9,26.9-34.2c2.2-2.7,2.2-4.6,0.3-7.4c-11.1-16.2-22-32.5-33.4-49.4c1.9-0.2,3.2-0.4,4.6-0.4
				c11.5,0,23,0.1,34.5-0.1c3-0.3,5.9,1.2,7.3,3.8c5.9,9.2,12.1,18.2,18.6,28.1c6.7-8.6,13.5-16.4,19.1-25c4.4-6.7,9.7-8.1,17.3-6.2
				c-4.9,6.5-9.7,12.8-14.5,19.1c-4.3,5.5-8.4,11.2-13.1,16.4c-2.7,3.1-2.8,5.3-0.4,8.6c10.7,15.1,21.1,30.3,31.6,45.5
				c1.3,1.9,2.6,3.9,4.2,6.3c-1.3,0.2-2.7,0.4-4,0.4c-12,0-24-0.1-36,0c-2.6,0.2-5.2-1.2-6.4-3.5
				C492.1,132.1,485.1,121.9,477.7,111.2L477.7,111.2z"/>
			
				<linearGradient id="SVGID_5_" gradientUnits="userSpaceOnUse" x1="-77.6857" y1="927.3301" x2="1438.3143" y2="980.3301" gradientTransform="matrix(1 0 0 1 0 -868)">
				<stop  offset="0" style="stop-color:#16F3CE"/>
				<stop  offset="1" style="stop-color:#15B187"/>
			</linearGradient>
			<path class="st4" d="M336.6,15.3l36.4-12v142.3h-36.4V15.3z"/>
			
				<linearGradient id="SVGID_6_" gradientUnits="userSpaceOnUse" x1="-78.4017" y1="947.8109" x2="1437.5983" y2="1000.8109" gradientTransform="matrix(1 0 0 1 0 -868)">
				<stop  offset="0" style="stop-color:#16F3CE"/>
				<stop  offset="1" style="stop-color:#15B187"/>
			</linearGradient>
			<path class="st5" d="M425.8,47.9v97.8h-36.5c-0.1-1.6-0.3-3.1-0.3-4.6c0-26,0.1-52,0-78c0-3.3,0.8-5,4.3-5.9
				C403.9,54.4,414.5,51.2,425.8,47.9L425.8,47.9z"/>
			
				<linearGradient id="SVGID_7_" gradientUnits="userSpaceOnUse" x1="-75.7014" y1="870.5714" x2="1440.2986" y2="923.5714" gradientTransform="matrix(1 0 0 1 0 -868)">
				<stop  offset="0" style="stop-color:#16F3CE"/>
				<stop  offset="1" style="stop-color:#15B187"/>
			</linearGradient>
			<path class="st6" d="M408.7,39c-11.5,0.1-20.1-8-20.2-18.9C388.3,9.2,397,0.2,407.9,0c0.1,0,0.2,0,0.3,0
				c11.1-0.2,20.1,8.9,20,20.4C428.1,30.5,419.3,39,408.7,39L408.7,39z"/>
		</g>
	</g>
</g>
</svg>
