<svg xmlns="http://www.w3.org/2000/svg" xmlns:xlink="http://www.w3.org/1999/xlink" viewBox="0 0 472 472"><defs><style>.cls-1{fill:none;stroke-miterlimit:10;stroke-width:8px;stroke:url(#linear-gradient);}.cls-2{fill:url(#New_Gradient_Swatch_3);}.cls-3{fill:url(#New_Gradient_Swatch_3-2);}.cls-4{fill:url(#New_Gradient_Swatch_3-3);}.cls-5{fill:url(#New_Gradient_Swatch_3-4);}.cls-6{fill:url(#New_Gradient_Swatch_3-5);}.cls-7{fill:url(#New_Gradient_Swatch_3-6);}.cls-8{fill:url(#New_Gradient_Swatch_3-7);}</style><linearGradient id="linear-gradient" x1="454.43" y1="17.57" x2="17.57" y2="454.43" gradientUnits="userSpaceOnUse"><stop offset="0" stop-color="#f6339a"/><stop offset="0.48" stop-color="#6378c4"/><stop offset="0.97" stop-color="#c27aff"/></linearGradient><linearGradient id="New_Gradient_Swatch_3" x1="504.43" y1="446.74" x2="74.27" y2="225.7" gradientUnits="userSpaceOnUse"><stop offset="0" stop-color="#c27aff"/><stop offset="0.48" stop-color="#6378c4"/><stop offset="1" stop-color="#f6339a"/></linearGradient><linearGradient id="New_Gradient_Swatch_3-2" x1="575.9" y1="307.67" x2="145.73" y2="86.62" xlink:href="#New_Gradient_Swatch_3"/><linearGradient id="New_Gradient_Swatch_3-3" x1="240.19" y1="154.55" x2="343.38" y2="215.09" xlink:href="#New_Gradient_Swatch_3"/><linearGradient id="New_Gradient_Swatch_3-4" x1="404.27" y1="184.34" x2="259.12" y2="308.16" xlink:href="#New_Gradient_Swatch_3"/><linearGradient id="New_Gradient_Swatch_3-5" x1="250.42" y1="306.68" x2="350.16" y2="308.06" xlink:href="#New_Gradient_Swatch_3"/><linearGradient id="New_Gradient_Swatch_3-6" x1="343.26" y1="322.93" x2="282.72" y2="314.68" xlink:href="#New_Gradient_Swatch_3"/><linearGradient id="New_Gradient_Swatch_3-7" x1="314.18" y1="356.54" x2="305.01" y2="313.89" xlink:href="#New_Gradient_Swatch_3"/></defs><title>JOB LIX</title><g id="Layer_2" data-name="Layer 2"><g id="Layer_1-2" data-name="Layer 1"><rect class="cls-1" x="4" y="4" width="464" height="464" rx="56"/><path class="cls-2" d="M168.45,179V345.89c.74,10.46-7.76,18.08-15.26,17.3-6.19-.64-12-7-12.21-15.26l-3.06-46.81c-2.55-11.1-11.7-19.3-22.38-20.35-12.34-1.2-24.36,7.37-27.48,20.35-5.6,23.34-.55,48.41,12.21,64.11.41.5.83,1,1.25,1.49a67.3,67.3,0,0,0,50.78,23l211.52,1a27.56,27.56,0,0,0,1-53.93l-112.94,1a35.64,35.64,0,0,1-23.41-10.17c-10.65-10.65-10.27-24.23-10.17-26.46V179a25.65,25.65,0,0,0-23.41-21.37C182.37,156.9,170.75,166,168.45,179Z"/><circle class="cls-3" cx="192.87" cy="110.84" r="29.51"/><path class="cls-4" d="M353.82,180.13H336.87V159.52a3.91,3.91,0,0,0-3.9-3.91H282.38a3.92,3.92,0,0,0-3.91,3.91v20.61H262.25a11.9,11.9,0,0,0-11.9,11.9V214.5a15.73,15.73,0,0,1,4-6.79l.87-.87a15.76,15.76,0,0,1,22.28,0L308,237.37l30.53-30.53a15.77,15.77,0,0,1,22.29,0l.86.87a15.63,15.63,0,0,1,4,6.79V192A11.89,11.89,0,0,0,353.82,180.13Zm-27.76,0H289.29V169.31a2.16,2.16,0,0,1,2.15-2.16H323.9a2.16,2.16,0,0,1,2.16,2.16Z"/><path class="cls-5" d="M361.53,319.4l-.86.87a15.77,15.77,0,0,1-22.29,0l-30.53-30.53-30.53,30.53a15.76,15.76,0,0,1-22.28,0l-.87-.87a15.76,15.76,0,0,1,0-22.28l30.53-30.53-30.53-30.53a15.78,15.78,0,0,1-4-6.79v-8.71a15.78,15.78,0,0,1,4-6.79l.87-.86a15.76,15.76,0,0,1,22.28,0l30.53,30.53,30.53-30.53a15.77,15.77,0,0,1,22.29,0l.86.86a15.68,15.68,0,0,1,4,6.79v8.71a15.68,15.68,0,0,1-4,6.79L331,266.59l30.53,30.53A15.76,15.76,0,0,1,361.53,319.4Z"/><polygon class="cls-6" points="326.35 313.84 321.26 318.93 308.36 306.03 295.46 318.93 290.37 313.84 308.36 295.85 326.35 313.84"/><polygon class="cls-7" points="320.8 322.03 317.28 325.54 308.36 316.62 299.44 325.54 295.92 322.03 308.36 309.59 320.8 322.03"/><polygon class="cls-8" points="316.04 329.48 313.87 331.65 308.36 326.14 302.85 331.65 300.68 329.48 308.36 321.8 316.04 329.48"/></g></g></svg>