<svg xmlns="http://www.w3.org/2000/svg" xmlns:xlink="http://www.w3.org/1999/xlink" viewBox="0 0 835 835"><defs><style>.cls-1{fill:url(#linear-gradient);}</style><linearGradient id="linear-gradient" x1="705.06" y1="758.48" x2="94.2" y2="33.89" gradientUnits="userSpaceOnUse"><stop offset="0" stop-color="#c27aff"/><stop offset="0.48" stop-color="#6378c4"/><stop offset="1" stop-color="#f6339a"/></linearGradient></defs><title>Asset 1</title><g id="Layer_2" data-name="Layer 2"><g id="Layer_1-2" data-name="Layer 1"><path class="cls-1" d="M397,0h41a41,41,0,0,0,4.87.83c66.91,4,129.68,22.34,186.83,57.31q175.56,107.43,202.57,312.1c1.16,8.89,1.83,17.84,2.73,26.76v41c-.3,1.95-.66,3.88-.89,5.84-1.83,15.54-2.8,31.23-5.59,46.6C812,581.78,769.88,659.53,702,722.82c-66.8,62.3-146,98.61-236.72,109.4-9.41,1.12-18.87,1.86-28.3,2.78H398c-7.78-.71-15.57-1.33-23.34-2.16-68-7.24-131-28.87-187.59-67.39Q27.75,656.93,2.78,465.24C1.61,456.19.91,447.08,0,438V397a42.57,42.57,0,0,0,.83-4.84c4-66.92,22.34-129.7,57.31-186.85Q165.56,29.75,370.23,2.73C379.12,1.57,388.07.9,397,0ZM803.79,431.89c-.25-74.38-12.36-132.17-40.32-185.66C697.55,120.11,593.58,48.11,451.83,33.12c-75.69-8-147.63,7.39-214.92,43.05C91.27,153.36,10.87,313,36,475.85,51,573.37,97.68,653.2,173.14,716.48c2.84,2.38,5.58,3.19,9.12,2.35,11.17-2.67,22.49-4.8,33.54-7.89a226.3,226.3,0,0,0,66.45-30.51C313.13,659.49,329.18,629,339,594.29c2.88-10.19.71-19.15-6.69-26.69a80.07,80.07,0,0,1-19.14-30.74c-5.76-17.18-11.14-34.53-15.58-52.09-2.29-9-6.42-15.82-14-20.93-3.72-2.52-7.77-5-10.47-8.43-4-5.14-8.15-10.73-10.08-16.81-2.07-6.54-2.48-13.51-7.06-19.22a10.8,10.8,0,0,1-2.06-6.56c.19-7.6-.34-15.51,1.58-22.72,4.84-18.25,6.18-36.6,5.81-55.4-.4-20,.18-40,1.06-59.95C263.67,245.9,274,220.9,294,199.55c29.23-31.16,63.91-51.76,106.73-56.41,52.14-5.67,96.43,11.65,133.14,48.58,16.88,17,31.43,35.88,35.48,60.21A358.31,358.31,0,0,1,574,302.07c.8,32.06-2.77,64.32,5.78,95.94a31.18,31.18,0,0,1,.24,12.91c-.78,4.66-2.85,9.1-4.37,13.62-.78,2.3-2.09,4.53-2.32,6.87-.92,9.69-4.54,18.16-11.49,24.88-5.13,5-10.82,9.36-16.37,13.87a20.07,20.07,0,0,0-7.31,12,273.45,273.45,0,0,1-6.9,27.09c-6.78,21.15-15,41.57-28.9,59.44-3.49,4.5-5.26,11.37-5.36,17.2a64.86,64.86,0,0,0,3.68,22.46c10.76,30.22,29.38,54.73,55.86,73,31,21.34,65.83,30.71,102.93,32.74a13,13,0,0,0,8.41-2.78C756.77,633.74,801.3,535.51,803.79,431.89Z"/></g></g></svg>