<?xml version="1.0" encoding="utf-8"?>
<!-- Generator: Adobe Illustrator 28.2.0, SVG Export Plug-In . SVG Version: 6.00 Build 0)  -->
<svg version="1.1" id="Layer_1" xmlns="http://www.w3.org/2000/svg" xmlns:xlink="http://www.w3.org/1999/xlink" x="0px" y="0px"
	 viewBox="0 0 800 800" style="enable-background:new 0 0 800 800;" xml:space="preserve">
<style type="text/css">
	.st0{fill:url(#SVGID_1_);}
	.st1{fill:url(#SVGID_00000134949703166524487900000007510479429224073099_);}
	.st2{fill:url(#SVGID_00000090280807747655333310000015543261385513618594_);}
	.st3{fill:#FFFFFF;}
	.st4{fill-rule:evenodd;clip-rule:evenodd;fill:#FFFFFF;}
</style>
<radialGradient id="SVGID_1_" cx="-139.1005" cy="940.6931" r="1.1429" gradientTransform="matrix(362.5004 -524.9997 -524.9997 -362.5004 544573.3125 268573.9062)" gradientUnits="userSpaceOnUse">
	<stop  offset="0" style="stop-color:#B13589"/>
	<stop  offset="0.7931" style="stop-color:#C62F94"/>
	<stop  offset="1" style="stop-color:#8A3AC8"/>
</radialGradient>
<path class="st0" d="M171.4,0h457.1C723.2,0,800,76.8,800,171.4v457.1c0,94.7-76.8,171.4-171.4,171.4H171.4
	C76.8,800,0,723.2,0,628.6V171.4C0,76.8,76.8,0,171.4,0z"/>
<radialGradient id="SVGID_00000137089903928768027020000001375697711821197463_" cx="-139.2191" cy="940.662" r="1.1429" gradientTransform="matrix(237.4995 -512.4989 -512.4989 -237.4995 515409.9062 152885.7188)" gradientUnits="userSpaceOnUse">
	<stop  offset="0" style="stop-color:#E0E8B7"/>
	<stop  offset="0.4447" style="stop-color:#FB8A2E"/>
	<stop  offset="0.7147" style="stop-color:#E2425C"/>
	<stop  offset="1" style="stop-color:#E2425C;stop-opacity:0"/>
</radialGradient>
<path style="fill:url(#SVGID_00000137089903928768027020000001375697711821197463_);" d="M171.4,0h457.1C723.2,0,800,76.8,800,171.4
	v457.1c0,94.7-76.8,171.4-171.4,171.4H171.4C76.8,800,0,723.2,0,628.6V171.4C0,76.8,76.8,0,171.4,0z"/>
<radialGradient id="SVGID_00000169534105940905101130000018049644738793309835_" cx="-138.9283" cy="940.5024" r="1.1429" gradientTransform="matrix(962.5007 -137.5001 -29.4098 -205.8689 161335.75 174546.1406)" gradientUnits="userSpaceOnUse">
	<stop  offset="0.1567" style="stop-color:#406ADC"/>
	<stop  offset="0.4678" style="stop-color:#6A45BE"/>
	<stop  offset="1" style="stop-color:#6A45BE;stop-opacity:0"/>
</radialGradient>
<path style="fill:url(#SVGID_00000169534105940905101130000018049644738793309835_);" d="M171.4,0h457.1C723.2,0,800,76.8,800,171.4
	v457.1c0,94.7-76.8,171.4-171.4,171.4H171.4C76.8,800,0,723.2,0,628.6V171.4C0,76.8,76.8,0,171.4,0z"/>
<path class="st3" d="M600,242.9c0,23.7-19.2,42.9-42.9,42.9c-23.7,0-42.9-19.2-42.9-42.9c0-23.7,19.2-42.9,42.9-42.9
	C580.8,200,600,219.2,600,242.9z"/>
<path class="st4" d="M400,542.9c78.9,0,142.9-64,142.9-142.9s-64-142.9-142.9-142.9s-142.9,64-142.9,142.9S321.1,542.9,400,542.9z
	 M400,485.7c47.3,0,85.7-38.4,85.7-85.7s-38.4-85.7-85.7-85.7s-85.7,38.4-85.7,85.7S352.7,485.7,400,485.7z"/>
<path class="st4" d="M114.3,388.6c0-96,0-144,18.7-180.7c16.4-32.3,42.7-58.5,74.9-74.9c36.7-18.7,84.7-18.7,180.7-18.7h22.9
	c96,0,144,0,180.7,18.7c32.3,16.4,58.5,42.7,74.9,74.9c18.7,36.7,18.7,84.7,18.7,180.7v22.9c0,96,0,144-18.7,180.7
	c-16.4,32.3-42.7,58.5-74.9,74.9c-36.7,18.7-84.7,18.7-180.7,18.7h-22.9c-96,0-144,0-180.7-18.7c-32.3-16.4-58.5-42.7-74.9-74.9
	c-18.7-36.7-18.7-84.7-18.7-180.7V388.6z M388.6,171.4h22.9c48.9,0,82.2,0,107.9,2.1c25.1,2,37.9,5.8,46.8,10.3
	c21.5,11,39,28.4,49.9,49.9c4.6,8.9,8.3,21.7,10.3,46.8c2.1,25.7,2.1,59,2.1,107.9v22.9c0,48.9,0,82.2-2.1,107.9
	c-2,25.1-5.8,37.9-10.3,46.8c-11,21.5-28.4,39-49.9,49.9c-8.9,4.6-21.7,8.3-46.8,10.3c-25.7,2.1-59,2.1-107.9,2.1h-22.9
	c-48.9,0-82.2,0-107.9-2.1c-25.1-2-37.9-5.8-46.8-10.3c-21.5-11-39-28.4-49.9-49.9c-4.6-8.9-8.3-21.7-10.3-46.8
	c-2.1-25.7-2.1-59-2.1-107.9v-22.9c0-48.9,0-82.2,2.1-107.9c2-25.1,5.8-37.9,10.3-46.8c11-21.5,28.4-39,49.9-49.9
	c8.9-4.6,21.7-8.3,46.8-10.3C306.4,171.5,339.6,171.4,388.6,171.4z"/>
</svg>
