<?xml version="1.0" encoding="utf-8"?>
<!-- Generator: Adobe Illustrator 28.2.0, SVG Export Plug-In . SVG Version: 6.00 Build 0)  -->
<svg version="1.1" id="Layer_1" xmlns="http://www.w3.org/2000/svg" xmlns:xlink="http://www.w3.org/1999/xlink" x="0px" y="0px"
	 viewBox="0 0 800 800" style="enable-background:new 0 0 800 800;" xml:space="preserve">
<style type="text/css">
	.st0{fill:#0077B5;}
	.st1{fill-rule:evenodd;clip-rule:evenodd;fill:#FFFFFF;}
</style>
<rect class="st0" width="800" height="800"/>
<g>
	<circle class="st0" cx="400" cy="400" r="333.3"/>
	<path class="st1" d="M312.9,238.1c0,20.8-15.8,37.5-40.5,37.5c-23.7,0-39.5-16.8-39.1-37.5c-0.5-21.8,15.3-38.1,39.5-38.1
		C297.1,200,312.4,216.3,312.9,238.1z M235.3,547V305.3h75.1V547L235.3,547L235.3,547z"/>
	<path class="st1" d="M370.7,382.4c0-30.1-1-55.9-2-77.1h65.3l3.5,33.1h1.5c9.9-15.3,34.6-38.5,74.6-38.5
		c49.4,0,86.5,32.6,86.5,103.8V547h-75.1v-134c0-31.2-10.9-52.4-38-52.4c-20.8,0-33.1,14.3-38,28.2c-2,5-3,11.9-3,18.8V547h-75.1
		L370.7,382.4L370.7,382.4z"/>
</g>
</svg>
